<?xml version="1.0" encoding="utf-8"?>
<!-- Generator: Adobe Illustrator 23.1.1, SVG Export Plug-In . SVG Version: 6.00 Build 0)  -->
<svg version="1.1" id="图层_1" xmlns="http://www.w3.org/2000/svg" xmlns:xlink="http://www.w3.org/1999/xlink" x="0px" y="0px"
	 viewBox="0 0 1024 1024" style="enable-background:new 0 0 1024 1024;" xml:space="preserve">
<style type="text/css">
	.st0{fill:#0f9762;}
	.st1{fill:#FFFFFF;}
</style>
<rect x="16.7" y="197.8" class="st0" width="992.9" height="613.9"/>
<g>
	<path class="st1" d="M331.1,550.7c0,30.8-2.1,54.1-6.2,69.3c-3.8,14-12.2,26.1-25.6,37c-13.3,10.8-28.6,16-46.9,16
		c-15.5,0-29.4-3.1-41.4-9.1c-11.7-5.9-20.8-13.8-27-23.5c-6.4-10-10.3-20.5-11.6-31.1c-1.5-11.7-2.2-31.4-2.2-58.5V282.4H98.8
		v268.3c0,45.6,2.8,76.7,8.6,94.9c5.8,18.4,15.6,35.3,29.1,50.3c13.5,15,30.6,26.8,50.9,35c20,8.1,42.6,12.2,67.3,12.2
		c31.7,0,59.8-8.5,83.6-25.4c23.8-16.8,40.6-38.1,50-63.3c9.2-24.7,13.6-58.6,13.6-103.6V282.4h-70.7V550.7z"/>
	<polygon class="st1" points="689.3,282.4 432.8,282.4 432.8,353.6 525.4,353.6 525.4,732.5 597.3,732.5 597.3,353.6 689.3,353.6 	
		"/>
	<path class="st1" d="M923,539.6c-15.9-22.7-41.2-47-75.1-72.4c-32.3-24.1-53.1-41.5-61.7-51.8c-7.5-8.9-11.2-19.1-11.2-31.1
		c0-11.6,3.7-20.7,11.2-27.9c7.7-7.4,17.1-11,28.7-11c12.3,0,22.6,2.9,31.6,9c9.6,6.5,21.9,19.8,36.3,39.7l6.7,9.2l56.7-45.1l-6-8.6
		c-17.5-25.1-35.9-44.4-54.5-57.4c-19.4-13.5-42.4-20.4-68.3-20.4c-33.5,0-61.4,11-82.8,32.8c-21.4,21.7-32.2,48.7-32.2,80
		c0,14.6,2.8,29.3,8.2,43.7c5.5,14.5,14.3,28.4,26.1,41.1c11.5,12.3,31.5,29.4,61.4,52.4c28.3,21.8,48.3,40.2,59.5,54.7
		c10.4,13.5,15.5,27.3,15.5,42c0,14-5.8,26-17.6,36.8c-12.2,11.1-26.6,16.5-43.9,16.5c-26.6,0-51.5-21.8-74.3-64.9l-5.3-10.1
		l-60.7,35.5l4.7,9.3C709.7,708.9,757.3,743,817.5,743c34.6,0,65.3-12.7,91.2-37.9c26.1-25.2,39.3-55.6,39.3-90.1
		C948,588.6,939.6,563.3,923,539.6z"/>
</g>
</svg>