<?xml version="1.0" encoding="utf-8"?>
<!-- Generator: Adobe Illustrator 23.1.1, SVG Export Plug-In . SVG Version: 6.00 Build 0)  -->
<svg version="1.1" id="图层_1" xmlns="http://www.w3.org/2000/svg" xmlns:xlink="http://www.w3.org/1999/xlink" x="0px" y="0px"
	 viewBox="0 0 1024 1024" style="enable-background:new 0 0 1024 1024;" xml:space="preserve">
<style type="text/css">
	.st0{fill:#BEBEBE;}
</style>
<path class="st0" d="M16.7,197.8v613.9h992.9V197.8H16.7z M401.8,550.7c0,45-4.5,78.9-13.6,103.6c-9.4,25.2-26.2,46.5-50,63.3
	c-23.8,16.8-51.9,25.4-83.6,25.4c-24.7,0-47.3-4.1-67.3-12.2c-20.3-8.2-37.4-20-50.9-35c-13.5-14.9-23.2-31.9-29.1-50.3
	c-5.8-18.2-8.6-49.2-8.6-94.9V282.4h71.3v268.3c0,27.1,0.7,46.8,2.2,58.5c1.3,10.6,5.2,21,11.6,31.1c6.2,9.7,15.2,17.7,27,23.5
	c12,6,25.9,9.1,41.4,9.1c18.3,0,33.6-5.2,46.9-16c13.4-10.9,21.8-23,25.6-37c4.1-15.2,6.2-38.5,6.2-69.3V282.4h70.7V550.7z
	 M597.3,732.5h-71.9V353.6h-92.6v-71.2h256.4v71.2h-92V732.5z M908.7,705.2C882.7,730.3,852,743,817.5,743
	c-60.2,0-107.7-34.1-141.4-101.4l-4.7-9.3l60.7-35.5l5.3,10.1c22.7,43.1,47.7,64.9,74.3,64.9c17.3,0,31.6-5.4,43.9-16.5
	c11.9-10.8,17.6-22.8,17.6-36.8c0-14.7-5.1-28.5-15.5-42c-11.2-14.6-31.3-33-59.5-54.7c-29.9-23-49.9-40.1-61.4-52.4
	c-11.9-12.7-20.7-26.5-26.1-41.1c-5.4-14.4-8.2-29.1-8.2-43.7c0-31.3,10.8-58.3,32.2-80c21.4-21.8,49.2-32.8,82.8-32.8
	c25.9,0,48.9,6.9,68.3,20.4c18.6,13,36.9,32.3,54.5,57.4l6,8.6l-56.7,45.1l-6.7-9.2c-14.5-19.9-26.7-33.3-36.3-39.7
	c-9-6-19.3-9-31.6-9c-11.6,0-21,3.6-28.7,11c-7.6,7.2-11.2,16.4-11.2,27.9c0,12,3.7,22.2,11.2,31.1c8.6,10.2,29.4,27.7,61.7,51.8
	c33.9,25.3,59.2,49.7,75.1,72.4c16.6,23.7,25,49,25,75.4C948,649.6,934.8,679.9,908.7,705.2z"/>
</svg>
